# xmcd CD database file
#
# Track frame offsets:
#	150
#	13820
#	24990
#	45275
#	63992
#	73190
#	86532
#	96357
#	112322
#	122207
#	137925
#	153220
#	163534
#	179302
#	188695
#	207007
#	219787
#	238242
#	248505
#	261317
#
# Disc length: 3601 seconds
#
# Revision: 0
# Processed by: cddbd v1.5.2PL0 Copyright (c) Steve Scherf et al.
# Submitted via: CDex 1.70beta2
#
DISCID=150e0f14
DTITLE=Various Artist - Taas kaikki kauniit muistot... CD1
DYEAR=1994
DGENRE=Joululaulu
TTITLE0=Hoosianna - Ylioppilaskunnan laulajat
TTITLE1=Heinillä härkien kaukalon - Candomino-kuoro
TTITLE2=Oi, Jouluyö - Mauno Kuusisto
TTITLE3=Konstan joululaulu - Karoly Garam
TTITLE4=Joulupukki kolkuttaa - Karita Mattila
TTITLE5=Tervehtii jo meitä Joulu armahin - Jorma Hynninen
TTITLE6=Jo joutuu ilta - Ritva-Liisa Korhonen
TTITLE7=En etsi valtaa, loistoa - Martti Talvela
TTITLE8=On hanget korkeat nietokset - Monica Groop
TTITLE9=Taas kaikki kauniit muistot - Matti Salminen
TTITLE10=Joulun kellot - Ylioppilaskunnan laulajat
TTITLE11=Arkihuolesi kaikki heitä - Kim Borg
TTITLE12=Mökit nukkuu lumiset - Esa Ruuttunen
TTITLE13=Joulu tullut on - Soile Isokoski
TTITLE14=Joudu, satakiel - Candomino-kuoro
TTITLE15=Sylvian joululaulu - Sulo Saarits
TTITLE16=Varpunen jouluaamuna - Taru Valjakka
TTITLE17=Me käymme Joulun viettohon - Ylioppilaskunnan laulajat
TTITLE18=Kun maass' on hanki - Jorma Hynninen
TTITLE19=Nyt syttyy valot tuhannet - Luostarivuoren musiikkiluokkien kuoro
EXTD=YEAR: 1994
EXTT0=
EXTT1=
EXTT2=
EXTT3=
EXTT4=
EXTT5=
EXTT6=
EXTT7=
EXTT8=
EXTT9=
EXTT10=
EXTT11=
EXTT12=
EXTT13=
EXTT14=
EXTT15=
EXTT16=
EXTT17=
EXTT18=
EXTT19=
PLAYORDER=
